<svg id="a57d72fc-3281-4dd8-b640-9a60e232c1c1" data-name="Layer 2" xmlns="http://www.w3.org/2000/svg" viewBox="0 0 2090 530"><path id="a4a892c3-25f2-4c85-af83-c521313d6b66" data-name="CIRCULO BASE" d="M448,282c26.91-15.57,28.48-65.36,27.72-82.62A237.68,237.68,0,0,1,234.49,478c31-6.27,61.79-21.37,85.16-61.84C373.59,322.76,352,189,247.75,121.12c8.51-5.33,18.18-10.46,34.18-16.4,48.48,49.63,62.34,97.25,88.18,138C391.39,276.31,421.5,297.34,448,282Z" fill="#037dbf"/><path id="bb53bf97-76a3-46ee-ac9c-901eb0e6f5a1" data-name="CIRCULO BASE" d="M445.26,276.67c26.68-15.69,33-89.35,11.29-127.72-10.18,58.65-48.4,101.9-61.92,115C409.14,278,427.88,286.89,445.26,276.67Z" fill="#037dbf"/><path id="a20ba8db-82dd-41cd-b3d5-397a12726410" data-name="CIRCULO BASE" d="M102.52,398.38c0,31.09,42.37,57.35,57.69,65.32A237.67,237.67,0,0,1,39.51,115.49c-10,29.94-12.39,64.19,11,104.66,53.94,93.43,180.6,141.64,291.48,85.27.36,10,0,21-2.89,37.81-67.21,17.16-115.39,5.36-163.62,7.35C135.75,352.22,102.48,367.78,102.52,398.38Z" fill="#037dbf"/><path id="ba5ac989-fd87-4499-a7d8-6a8169a2cba6" data-name="CIRCULO BASE" d="M108.5,398.7c.25,30.95,60.87,73.27,105,73.63-45.71-38.13-64.05-92.87-68.61-111.1C125.45,366.77,108.34,378.53,108.5,398.7Z" fill="#037dbf"/><path id="aadf7f54-4fe4-4f26-8b6a-b2ed376f49ab" data-name="CIRCULO BASE - PRIMO" d="M174.47,41c-26.94-15.51-70.85,8-85.41,17.31A237.68,237.68,0,0,1,451,127.9c-20.91-23.68-49.4-42.83-96.13-42.83-107.88,0-213,85.59-219.59,209.8-8.88-4.71-18.15-10.51-31.29-21.41C122.7,206.67,157,170.85,179.39,128.09,197.83,92.88,201,56.29,174.47,41Z" fill="#037dbf"/><path id="a61e3c74-c436-4230-9d7d-221051168f50" data-name="CIRCULO BASE - PRIMO" d="M171.2,46C144.27,30.79,77.32,62.12,55,100.13c55.88-20.51,112.46-9,130.52-3.86C190.38,76.68,188.75,56,171.2,46Z" fill="#037dbf"/><path d="M1283.18,197.32V412.56h-32V197.32h-26.84V164.69h26.84v-9q0-53.2,12.79-72.55t44.74-19.33l43,3.52-.43,31.13q-23.86-1-39.42-1t-22.15,12q-6.61,12.06-6.61,46.69v8.5H1345v32.63Z" fill="#007dc0"/><path d="M479.42,102.93V68.29H692.47v34.64H602.56V412.56H570.18V102.93Z" fill="#007dc0"/><path d="M757.39,412.56h-32V68.29h32V178.74q34.08-19.06,65.62-19.07,42.6,0,57.31,27.11T895,283.17V412.56H863.07V284.18q0-52.21-8.74-71.55T817.47,193.3a123.21,123.21,0,0,0-52,11.55l-8.1,3.51Z" fill="#007dc0"/><path d="M938.44,101.08V68.29h32v32.79Zm0,311.48V164.69h32V412.56Z" fill="#007dc0"/><path d="M1052.37,412.56h-32V164.69h31.53v17.57q34.51-22.59,66-22.59,42.6,0,57.31,27.11t14.7,96.39V412.56h-31.53V284.18q0-52.21-8.74-71.55t-37.28-19.33a95.9,95.9,0,0,0-28.76,4.77q-15.14,4.78-23.23,9.29l-8.09,4.52Z" fill="#007dc0"/><path d="M1381.07,101.08V68.29h32v32.79Zm0,311.48V164.69h32V412.56Z" fill="#007dc0"/><path d="M1495,412.56h-32V164.69h31.53v17.57q34.52-22.59,66-22.59,42.6,0,57.31,27.11t14.7,96.39V412.56H1601.1V284.18q0-52.21-8.74-71.55t-37.28-19.33a95.9,95.9,0,0,0-28.76,4.77q-15.13,4.78-23.23,9.29l-8.09,4.52Z" fill="#007dc0"/><path d="M1676.16,101.08V68.29h32v32.79Zm0,311.48V164.69h32V412.56Z" fill="#007dc0"/><path d="M1872.94,197.32l-7.86-32.63h-57.93V68.29h-31.53v96.4h-33v32.63h33v132q0,53.73,12.78,72.8t46,19.08q14.91,0,43.46-5.52l-2.13-31.13-37.92,3q-20,0-25.36-13.55t-5.32-56.74v-120Z" fill="#007dc0"/><path d="M1901.07,164.69h32l50.68,207.83a13.9,13.9,0,0,0,13.51,10.57h3.13L2054,164.69h32l-88.63,362.49h-32l27.7-111.46h0a40,40,0,0,1-38.89-30.5Z" fill="#007dc0"/></svg>