<svg id="Layer_1" data-name="Layer 1" xmlns="http://www.w3.org/2000/svg" viewBox="0 0 22.04 18.16"><defs><style>.cls-1{fill:#ffffff}</style></defs><path class="cls-1" d="M19.72,19.29a.9.9,0,0,1-.26-1.76,3,3,0,0,0,2-1.72A3.56,3.56,0,0,0,21.37,13a3.77,3.77,0,0,0-3.73-2.06c-.79,0-1.86-.1-2.11-1.11a6,6,0,0,0-7-4.48A7.17,7.17,0,0,0,3.66,9.18c-.84,2-.3,4.34,1.6,6.93A.9.9,0,1,1,3.8,17.17C.94,13.27,1.24,10.29,2,8.48a8.91,8.91,0,0,1,6.24-5,7.77,7.77,0,0,1,9,5.53l.53,0a5.56,5.56,0,0,1,5.24,3,5.41,5.41,0,0,1,.16,4.39A4.75,4.75,0,0,1,20,19.25.75.75,0,0,1,19.72,19.29Zm-6.69,2,3.8-3.75a.9.9,0,0,0-1.26-1.29L12.4,19.4,9.33,16.29a.9.9,0,1,0-1.28,1.27l3.7,3.75a.91.91,0,0,0,.64.27h0A.9.9,0,0,0,13,21.32Zm.27-.63,0-8.13a.9.9,0,0,0-.9-.9h0a.91.91,0,0,0-.91.89l0,8.12a.9.9,0,0,0,.9.91h0A.91.91,0,0,0,13.3,20.69Z" transform="translate(-1.48 -3.42)"/></svg>