<?xml version="1.0" encoding="utf-8"?>
<!-- Generator: Adobe Illustrator 16.0.0, SVG Export Plug-In . SVG Version: 6.00 Build 0)  -->
<!DOCTYPE svg PUBLIC "-//W3C//DTD SVG 1.1//EN" "http://www.w3.org/Graphics/SVG/1.1/DTD/svg11.dtd">
<svg version="1.1" id="Layer_1" xmlns="http://www.w3.org/2000/svg" xmlns:xlink="http://www.w3.org/1999/xlink" x="0px" y="0px"
	 width="1024px" height="1024px" viewBox="0 0 1024 1024" enable-background="new 0 0 1024 1024" xml:space="preserve">
  <style type="text/css">
<![CDATA[
	.tc{fill:#007BFF;}
]]>
</style>
<path class="tc" d="M794.1,569.28L637.232,726.148c-7.393,7.391-7.393,19.38,0,26.769l53.537,53.537c7.395,7.395,19.378,7.395,26.77,0
	L1012,511.996l-80.311-80.306L717.795,217.545c-7.394-7.392-19.378-7.394-26.77,0l-53.541,53.538
	c-7.391,7.391-7.391,19.378,0,26.769l157.859,157.857H379.663c-10.453,0-18.929,8.476-18.929,18.929v75.714
	c0,10.457,8.476,18.93,18.929,18.93H794.1z"/>
<path class="tc" d="M52.506,82h478.989C553.829,82,572,99.948,572,122.009v293.699h-60V142H72v740h440V609.28h60v292.711
	C572,924.052,553.829,942,531.495,942H52.506C30.171,942,12,924.052,12,901.991V122.009C12,99.948,30.171,82,52.506,82z"/>
</svg>
