<?xml version="1.0" encoding="utf-8"?>
<!-- Generator: Adobe Illustrator 26.3.1, SVG Export Plug-In . SVG Version: 6.00 Build 0)  -->
<svg version="1.1" id="a57d72fc-3281-4dd8-b640-9a60e232c1c1"
	 xmlns="http://www.w3.org/2000/svg" xmlns:xlink="http://www.w3.org/1999/xlink" x="0px" y="0px" viewBox="0 0 479.3 530"
	 style="enable-background:new 0 0 479.3 530;" xml:space="preserve">
<style type="text/css">
	.st0{fill:#FFFFFF;}
</style>
<path class="st0" d="M446,306.5c26.9-15.6,28.5-65.4,27.7-82.6c22.7,129.3-63.8,252.5-193.1,275.2c-15.9,2.8-32,3.9-48.2,3.5
	c31-6.3,61.8-21.4,85.2-61.8c53.9-93.4,32.3-227.2-71.9-295c8.5-5.3,18.2-10.5,34.2-16.4c48.5,49.6,62.3,97.2,88.2,138
	C389.4,300.8,419.5,321.9,446,306.5z M443.3,301.2c26.7-15.7,33-89.4,11.3-127.7c-10.2,58.6-48.4,101.9-61.9,115
	C407.2,302.5,425.9,311.4,443.3,301.2z M100.5,422.9c0,31.1,42.4,57.4,57.7,65.3C34.9,443.2-28.6,306.8,16.4,183.5
	C22,168.3,29,153.8,37.5,140c-10,29.9-12.4,64.2,11,104.7C102.5,338.1,229.1,386.3,340,330c0.4,10,0,21-2.9,37.8
	c-67.2,17.2-115.4,5.4-163.6,7.4C133.8,376.8,100.5,392.3,100.5,422.9z M106.5,423.2c0.2,31,60.9,73.3,105,73.6
	c-45.7-38.1-64.1-92.9-68.6-111.1C123.5,391.3,106.4,403.1,106.5,423.2z M172.5,65.5c-26.9-15.5-70.8,8-85.4,17.3
	c100.6-84.3,250.5-71.1,334.8,29.6c10.4,12.4,19.5,25.8,27.1,40c-20.9-23.7-49.4-42.8-96.1-42.8c-107.9,0-213,85.6-219.6,209.8
	c-8.9-4.7-18.2-10.5-31.3-21.4c18.7-66.8,53-102.6,75.4-145.4C195.9,117.4,199,80.8,172.5,65.5z M169.2,70.5
	C142.3,55.3,75.3,86.7,53,124.7c55.9-20.5,112.5-9,130.5-3.9C188.4,101.2,186.8,80.5,169.2,70.5z"/>
</svg>
