<?xml version="1.0" encoding="utf-8"?>
<!-- Generator: Adobe Illustrator 26.0.1, SVG Export Plug-In . SVG Version: 6.00 Build 0)  -->
<svg version="1.1" id="ea1eece3-18cb-4acf-96dd-61f5fabf50f1"
	 xmlns="http://www.w3.org/2000/svg" xmlns:xlink="http://www.w3.org/1999/xlink" x="0px" y="0px" viewBox="0 0 189 187"
	 style="enable-background:new 0 0 189 187;" xml:space="preserve">
<style type="text/css">
	.st0{fill:#077DBD;}
</style>
<path id="bbed3cbc-b467-4359-bce1-a937b24e105a" class="st0" d="M171.7,109c10-5.8,10.6-24.4,10.4-30.8c8.5,48.2-23.8,94.2-72,102.7
	c-5.9,1-12,1.5-18,1.3c11.6-2.3,23.1-8,31.8-23.1C143.9,124.2,135.9,74.3,97,49c4-2.5,8.3-4.5,12.8-6.1c18,18.5,23.2,36.2,32.9,51.5
	C150.6,106.9,161.8,114.7,171.7,109z"/>
<path id="baa207f6-55a2-488f-97a6-7c0086a93f3a" class="st0" d="M170.7,107c9.9-5.9,12.3-33.3,4.2-47.7c-3.8,21.9-18.1,38-23.1,42.9
	C157.2,107.5,164.2,110.8,170.7,107z"/>
<path id="b4dc4473-a77a-4d11-9ad3-71a0f437c4c4" class="st0" d="M42.8,152.4c0,11.6,15.8,21.4,21.5,24.4
	C18.3,160-5.4,109.1,11.4,63.1c2.1-5.7,4.7-11.1,7.9-16.2c-3.8,11.2-4.6,24,4.1,39.1c20.1,34.9,67.4,52.9,108.8,31.8
	c0.2,4.7-0.2,9.5-1.1,14.1c-25.1,6.4-43.1,2-61.1,2.7C55.2,135.2,42.8,141,42.8,152.4z"/>
<path id="fcd452d7-86e9-4fdc-a0cd-8fbaa7e78f32" class="st0" d="M45,152.6c0.1,11.6,22.7,27.3,39.2,27.5
	c-17-14.2-23.9-34.7-25.6-41.5C51.3,140.6,44.9,145,45,152.6z"/>
<path id="a65c361f-ad3b-4917-9202-f24172e8a8a3" class="st0" d="M69.6,19.1c-10.1-5.8-26.4,3-31.9,6.5C75.3-5.9,131.3-1,162.7,36.6
	c3.9,4.6,7.3,9.6,10.1,14.9c-7.8-8.8-18.4-16-35.9-16c-40.3,0-79.5,31.9-82,78.3c-4.2-2.2-8.1-4.9-11.7-8
	c7-24.9,19.8-38.3,28.2-54.2C78.3,38.4,79.5,24.8,69.6,19.1z"/>
<path id="afb19844-1cc3-47c9-a567-620637b52a6b" class="st0" d="M68.4,20.9c-10-5.7-35,6-43.4,20.2c20.9-7.7,42-3.4,48.7-1.4
	C75.6,32.4,75,24.6,68.4,20.9z"/>
</svg>
